<svg width="40" height="40" viewBox="0 0 40 40" fill="none" xmlns="http://www.w3.org/2000/svg">
<g clip-path="url(#clip0)">
<path d="M33.0872 8.35023L20 9.94081L6.91284 8.35023V5.62042L20 4.25537L33.0872 5.62042V8.35023Z" fill="#7E7CE8"/>
<path d="M11.2247 5.1709L6.91284 5.62073V8.35053L13.7778 9.18488L11.2247 5.1709Z" fill="#7C62E8"/>
<path d="M6.91284 2.89062H33.0872V5.62043H6.91284V2.89062Z" fill="#6EE6DB"/>
<path d="M6.91284 8.3501H33.0872V11.0799H6.91284V8.3501Z" fill="#FF8892"/>
<path d="M13.2471 8.3501H6.91284V11.0799H14.9835L13.2471 8.3501Z" fill="#FF5754"/>
<path d="M9.77448 2.89062H6.91284V5.62043H11.5109L9.77448 2.89062Z" fill="#26BED3"/>
<path d="M28.775 5.1709L33.0871 5.62073V8.35053L26.2222 9.18488L28.775 5.1709Z" fill="#7C62E8"/>
<path d="M26.7531 8.3501H33.0873V11.0799H25.0166L26.7531 8.3501Z" fill="#FF5754"/>
<path d="M30.2255 2.89062H33.0871V5.62043H28.489L30.2255 2.89062Z" fill="#26BED3"/>
<path d="M14.6137 20.5763L12.4451 22.7455L5.92957 15.5518L1.91406 6.18872L4.41376 4.53955L10.5982 11.7335L14.6137 20.5763Z" fill="#7E7CE8"/>
<path d="M7.78076 17.5958L12.4451 22.7457L14.6137 20.5768L11.4508 13.6108C9.99085 14.6942 8.74329 16.0474 7.78076 17.5958Z" fill="#7C62E8"/>
<path d="M1.91409 6.18896L0.708951 6.98395C-0.00973905 7.45789 -0.215428 8.42072 0.246609 9.14704L10.2762 24.9149L12.4454 22.7457L1.91409 6.18896Z" fill="#6EE6DB"/>
<path d="M16.7827 18.4076L14.6135 20.5765L4.41357 4.5398L6.91266 2.89062L16.7827 18.4076Z" fill="#FF8892"/>
<path d="M25.3865 20.5763L27.5548 22.7455L34.0706 15.5518L38.0861 6.18872L35.5864 4.53955L29.4017 11.7335L25.3865 20.5763Z" fill="#7E7CE8"/>
<path d="M38.086 6.18896L39.2912 6.98395C40.0099 7.45789 40.2155 8.42072 39.7535 9.14704L29.7239 24.9149L27.5547 22.7457L38.086 6.18896Z" fill="#6EE6DB"/>
<path d="M23.2173 18.4076L25.3865 20.5765L35.5864 4.5398L33.0873 2.89062L23.2173 18.4076Z" fill="#FF8892"/>
<path d="M14.6135 20.5767L16.7827 18.4079L13.0693 12.5698C12.1898 13.056 11.3662 13.6309 10.6108 14.2837L14.6135 20.5767Z" fill="#FF5754"/>
<path d="M6.80469 19.4576L10.2761 24.9147L12.4453 22.7455L8.50025 16.5435C7.82672 17.4398 7.25635 18.4169 6.80469 19.4576Z" fill="#26BED3"/>
<path d="M32.2191 17.5958L27.5548 22.7457L25.3865 20.5768L28.5493 13.6108C30.0093 14.6942 31.2569 16.0474 32.2191 17.5958Z" fill="#7C62E8"/>
<path d="M25.3865 20.5767L23.2173 18.4079L26.9304 12.5698C27.8102 13.056 28.6338 13.6309 29.3888 14.2837L25.3865 20.5767Z" fill="#FF5754"/>
<path d="M33.1949 19.4576L29.7239 24.9147L27.5547 22.7455L31.4997 16.5435C32.1729 17.4398 32.7436 18.4169 33.1949 19.4576Z" fill="#26BED3"/>
<path d="M31.9617 25.1614C31.9617 31.7679 26.6062 37.1231 20 37.1231C13.3936 37.1231 8.03833 31.7679 8.03833 25.1614C8.03833 18.5552 13.3936 13.1997 20 13.1997C26.6062 13.1997 31.9617 18.5552 31.9617 25.1614Z" fill="#CCC9C6"/>
<path d="M29.3117 25.1615C29.3117 30.3043 25.1427 34.4733 19.9998 34.4733C14.857 34.4733 10.688 30.3043 10.688 25.1615C10.688 20.0186 14.857 15.8496 19.9998 15.8496C25.1427 15.8496 29.3117 20.0186 29.3117 25.1615Z" fill="#E7E7E7"/>
<path d="M14.8881 25.9807C14.5545 25.9807 14.2844 25.7104 14.2844 25.3771V24.4518C14.2844 24.1185 14.5545 23.8481 14.8881 23.8481C15.2216 23.8481 15.4917 24.1185 15.4917 24.4518V25.3771C15.4917 25.7104 15.2216 25.9807 14.8881 25.9807Z" fill="#2D3C50"/>
<path d="M25.1122 25.9807C24.7786 25.9807 24.5085 25.7104 24.5085 25.3771V24.4518C24.5085 24.1185 24.7786 23.8481 25.1122 23.8481C25.4454 23.8481 25.7158 24.1185 25.7158 24.4518V25.3771C25.7158 25.7104 25.4454 25.9807 25.1122 25.9807Z" fill="#2D3C50"/>
<path d="M20.0002 26.4747C19.3343 26.4747 18.7087 26.196 18.2839 25.7099C18.0645 25.459 18.0901 25.0779 18.3413 24.8581C18.5921 24.639 18.9736 24.6644 19.193 24.9155C19.3884 25.1392 19.6825 25.2674 20.0002 25.2674C20.3176 25.2674 20.6121 25.1389 20.8074 24.9155C21.0268 24.6644 21.408 24.6387 21.6592 24.8581C21.91 25.0776 21.9357 25.459 21.7162 25.7099C21.2914 26.196 20.6661 26.4747 20.0002 26.4747Z" fill="#2D3C50"/>
</g>
<defs>
<clipPath id="clip0">
<rect width="40" height="40" fill="white"/>
</clipPath>
</defs>
</svg>
