<svg width="40" height="40" viewBox="0 0 40 40" fill="none" xmlns="http://www.w3.org/2000/svg">
<g clip-path="url(#clip0)">
<path d="M2.87373 11.1268C3.8231 10.091 4.81795 9.15897 5.91334 8.29366C6.04216 8.19194 6.22763 8.31374 6.18451 8.4721C5.57052 10.7287 4.49779 12.9589 2.84412 14.6168C2.76982 13.4562 2.76873 12.2859 2.87373 11.1268Z" fill="#FF901D"/>
<path d="M2.84406 14.6174C1.8893 13.4652 1.06883 12.2739 0.32961 10.9878C0.245078 10.8408 0.0202345 10.8932 0.0116408 11.0627C-0.121719 13.6971 0.884844 16.7796 3.33719 18.0229C3.09281 16.9026 2.91672 15.7625 2.84406 14.6174Z" fill="#FF901D"/>
<path d="M3.33691 18.022C3.93777 16.7857 4.61035 15.6354 5.39871 14.5205C5.49223 14.3882 5.70199 14.4489 5.70879 14.6107C5.8048 16.8864 5.41434 19.2921 4.32394 21.2897C3.91973 20.2264 3.57879 19.1342 3.33691 18.022Z" fill="#FF901D"/>
<path d="M4.32425 21.2908C3.08449 20.494 1.95199 19.6228 0.865661 18.6442C0.740349 18.5314 0.543786 18.6492 0.586208 18.8124C1.24066 21.3288 3.11222 23.911 5.77675 24.3671C5.22285 23.3781 4.72668 22.3514 4.32425 21.2908Z" fill="#FF901D"/>
<path d="M5.77637 24.3667C5.99355 23.0179 6.30418 21.7313 6.7366 20.4449C6.78801 20.292 7.00527 20.289 7.05918 20.4412C7.81543 22.5762 8.12176 24.9849 7.66551 27.1984C6.97191 26.3008 6.33027 25.3574 5.77637 24.3667Z" fill="#FF901D"/>
<path d="M7.66607 27.199C6.25287 26.7986 4.91771 26.2979 3.59545 25.6841C3.44271 25.6132 3.28959 25.7832 3.37763 25.9267C4.73716 28.1438 7.28248 30.0633 9.96334 29.7326C9.14037 28.9441 8.36271 28.1019 7.66607 27.199Z" fill="#FF901D"/>
<path d="M9.96269 29.7318C9.76988 28.3729 9.68793 27.0475 9.72582 25.6851C9.73027 25.5236 9.93746 25.4574 10.0334 25.5874C11.3875 27.4232 12.3976 29.6532 12.6393 31.914C11.6978 31.2523 10.7937 30.529 9.96269 29.7318Z" fill="#FF901D"/>
<path d="M37.1262 11.1268C36.1769 10.091 35.182 9.15897 34.0866 8.29366C33.9578 8.19194 33.7723 8.31374 33.8154 8.4721C34.4294 10.7287 35.5022 12.9589 37.1558 14.6168C37.2301 13.4562 37.2312 12.2859 37.1262 11.1268Z" fill="#FF901D"/>
<path d="M37.156 14.6174C38.1107 13.4652 38.9312 12.2739 39.6704 10.9878C39.755 10.8408 39.9798 10.8932 39.9884 11.0627C40.1218 13.6971 39.1152 16.7796 36.6628 18.0229C36.9072 16.9026 37.0833 15.7625 37.156 14.6174Z" fill="#FF901D"/>
<path d="M36.663 18.022C36.0621 16.7857 35.3895 15.6354 34.6012 14.5205C34.5077 14.3882 34.2979 14.4489 34.2911 14.6107C34.1951 16.8864 34.5856 19.2921 35.676 21.2897C36.0802 20.2264 36.4211 19.1342 36.663 18.022Z" fill="#FF901D"/>
<path d="M35.6756 21.2908C36.9154 20.494 38.0479 19.6228 39.1342 18.6442C39.2595 18.5314 39.4561 18.6492 39.4137 18.8124C38.7592 21.3288 36.8877 23.911 34.2231 24.3671C34.7771 23.3781 35.2732 22.3514 35.6756 21.2908Z" fill="#FF901D"/>
<path d="M34.2237 24.3667C34.0065 23.0179 33.6959 21.7313 33.2635 20.4449C33.2121 20.292 32.9948 20.289 32.9409 20.4412C32.1847 22.5762 31.8783 24.9849 32.3346 27.1984C33.0282 26.3008 33.6698 25.3574 34.2237 24.3667Z" fill="#FF901D"/>
<path d="M32.3341 27.199C33.7473 26.7986 35.0825 26.2979 36.4048 25.6841C36.5575 25.6132 36.7106 25.7832 36.6226 25.9267C35.263 28.1438 32.7177 30.0633 30.0369 29.7326C30.8598 28.9441 31.6375 28.1019 32.3341 27.199Z" fill="#FF901D"/>
<path d="M30.0375 29.7318C30.2303 28.3729 30.3122 27.0475 30.2744 25.6851C30.2699 25.5236 30.0627 25.4574 29.9668 25.5874C28.6127 27.4232 27.6026 29.6532 27.3608 31.914C28.3024 31.2523 29.2065 30.529 30.0375 29.7318Z" fill="#FF901D"/>
<path d="M15.9456 33.154C14.8637 32.6205 13.8747 32.04 13.006 31.4289C13.0058 31.4287 13.0056 31.4287 13.0054 31.4285C13.0052 31.4284 13.0052 31.4283 13.005 31.4282C12.0356 30.7469 11.1615 30.0345 10.4068 29.3105C10.4067 29.3104 10.4065 29.3101 10.4063 29.31C9.55923 28.4986 8.80861 27.6709 8.17517 26.8499C8.17501 26.8497 8.17478 26.8494 8.17462 26.8492C8.17455 26.8491 8.17455 26.849 8.17447 26.849C7.45994 25.9241 6.84251 24.9989 6.33939 24.0987C6.33915 24.0983 6.33884 24.0979 6.33861 24.0974C5.76798 23.0781 5.29353 22.0735 4.92853 21.1113C4.92837 21.1109 4.92822 21.1106 4.92806 21.1103V21.1102C4.51119 20.0133 4.18861 18.9456 3.96915 17.9369C3.96915 17.9367 3.96908 17.9366 3.96908 17.9365C3.71712 16.7815 3.55595 15.6692 3.49009 14.6308C3.49009 14.6303 3.48993 14.6298 3.48993 14.6294C3.41337 13.4335 3.4229 12.2937 3.51829 11.2415C3.51947 11.2288 3.51947 11.2162 3.51978 11.2035C3.64572 9.57655 3.94689 7.94569 4.41642 6.3553C4.51079 6.03553 4.32806 5.69983 4.00829 5.60545C3.68868 5.511 3.35283 5.69366 3.25845 6.01358C2.75993 7.70225 2.44126 9.43498 2.31134 11.1637C2.31048 11.1755 2.31072 11.187 2.31048 11.1987C2.21501 12.2941 2.20603 13.4737 2.28501 14.7067C2.28501 14.7069 2.28501 14.7071 2.28501 14.7073C2.3547 15.8054 2.52415 16.9773 2.78876 18.1906C2.789 18.1915 2.78908 18.1926 2.78923 18.1935C3.02134 19.2607 3.36118 20.3864 3.79939 21.5391C3.79947 21.5393 3.79947 21.5394 3.79954 21.5396C4.18572 22.5574 4.68556 23.6165 5.28525 24.6876C5.28533 24.6877 5.2854 24.6879 5.28548 24.688C5.28572 24.6884 5.28587 24.6887 5.28611 24.689C5.28611 24.689 5.28611 24.689 5.28619 24.6891C5.8183 25.6407 6.46853 26.6157 7.219 27.5871C7.21931 27.5875 7.21962 27.5877 7.21986 27.5881C7.88947 28.4558 8.68001 29.328 9.56962 30.1803C9.56986 30.1805 9.57001 30.1808 9.57025 30.181C10.3691 30.9475 11.2912 31.6994 12.311 32.4161C12.3112 32.4162 12.3113 32.4162 12.3114 32.4163C13.2308 33.0633 14.2739 33.6758 15.4117 34.2369C15.4976 34.2792 15.5886 34.2993 15.6782 34.2993C15.9008 34.2993 16.115 34.1756 16.2201 33.9625C16.3675 33.6634 16.2446 33.3015 15.9456 33.154Z" fill="#F7BC14"/>
<path d="M37.6896 11.1988C37.6894 11.1872 37.6896 11.1757 37.6888 11.164C37.5588 9.43498 37.2402 7.70217 36.7417 6.01381C36.6473 5.69412 36.3117 5.51178 35.9917 5.60576C35.672 5.70014 35.4893 6.03592 35.5837 6.35568C36.0531 7.94568 36.3543 9.57646 36.4803 11.2036C36.4807 11.2163 36.4807 11.229 36.4819 11.2419C36.5773 12.2936 36.5868 13.4335 36.5103 14.6298C36.5103 14.6301 36.5103 14.6303 36.5103 14.6304C36.5103 14.6307 36.5102 14.6308 36.5102 14.6311C36.4443 15.669 36.2831 16.7812 36.0311 17.9368C36.0311 17.9369 36.031 17.937 36.031 17.9371C35.8117 18.9458 35.4891 20.0135 35.0721 21.1104C35.0721 21.1105 35.0721 21.1106 35.072 21.1108C35.0719 21.1111 35.0717 21.1113 35.0716 21.1115C34.7067 22.0737 34.2321 23.0786 33.661 24.0986C33.6609 24.0987 33.6608 24.0989 33.6607 24.099C33.1577 24.9989 32.5403 25.9241 31.8256 26.8492C31.8254 26.8494 31.8253 26.8497 31.8251 26.8499C31.825 26.85 31.825 26.85 31.8249 26.8501C31.1917 27.6708 30.441 28.4984 29.5938 29.3101C29.5936 29.3103 29.5935 29.3105 29.5933 29.3107C28.8389 30.0344 27.9647 30.7469 26.995 31.4283C26.9948 31.4285 26.9945 31.4287 26.9942 31.429C26.9942 31.429 26.9941 31.429 26.994 31.429C26.1253 32.0403 25.1363 32.6207 24.0544 33.1541C23.7553 33.3015 23.6324 33.6635 23.7799 33.9625C23.885 34.1758 24.0992 34.2994 24.3218 34.2994C24.4114 34.2994 24.5024 34.2793 24.5883 34.2369C25.7259 33.676 26.7688 33.0636 27.6882 32.4167C27.6885 32.4165 27.6888 32.4164 27.6892 32.4161C28.7092 31.6993 29.6313 30.9473 30.4299 30.1811C30.4301 30.1808 30.4303 30.1806 30.4305 30.1804C31.3205 29.3276 32.1113 28.4552 32.7807 27.5876C32.7808 27.5876 32.7808 27.5875 32.7809 27.5874C32.781 27.5873 32.781 27.5872 32.7811 27.5872C33.532 26.6151 34.1826 25.6397 34.7146 24.6881C34.715 24.6875 34.7153 24.6869 34.7156 24.6862C35.3151 23.6153 35.8147 22.5566 36.2004 21.5397C36.2004 21.5397 36.2005 21.5397 36.2005 21.5395C36.2005 21.5394 36.2006 21.5394 36.2006 21.5393C36.6385 20.3872 36.9781 19.2622 37.2103 18.1954C37.2103 18.1952 37.2104 18.1951 37.2105 18.1948C37.4756 16.9794 37.6453 15.8062 37.715 14.7074C37.7151 14.7065 37.715 14.7058 37.715 14.705C37.794 13.4722 37.785 12.2933 37.6896 11.1988Z" fill="#F7BC14"/>
<path d="M16.5696 23.1256C14.8293 23.1257 13.1331 22.5091 11.7833 21.3605C10.1182 19.9435 9.16309 17.877 9.16309 15.6912V13.6499C9.16309 13.414 9.25512 13.1921 9.42215 13.0255C9.58863 12.8595 9.80973 12.7681 10.0447 12.7681C10.0455 12.7681 10.0463 12.7681 10.0471 12.7681L15.3914 12.7798C15.7248 12.7805 15.9945 13.0513 15.9938 13.3848C15.993 13.7177 15.7228 13.9871 15.3902 13.9871C15.3897 13.9871 15.3893 13.9871 15.3888 13.9871L10.3704 13.9761L10.3704 15.6911C10.3704 17.5224 11.1705 19.2536 12.5657 20.4409C13.9501 21.619 15.7702 22.1286 17.5582 21.8385C17.6203 21.8285 17.6827 21.8179 17.7457 21.8069C18.0745 21.7499 18.387 21.969 18.4445 22.2974C18.502 22.6258 18.2824 22.9386 17.954 22.9961C17.886 23.008 17.8184 23.0195 17.7514 23.0303C17.3578 23.0942 16.9625 23.1256 16.5696 23.1256Z" fill="#FFB125"/>
<path d="M23.4302 23.1256C23.0372 23.1256 22.6422 23.0942 22.2483 23.0303C22.1814 23.0195 22.1138 23.008 22.0458 22.9961C21.7173 22.9386 21.4978 22.6257 21.5553 22.2974C21.6128 21.9689 21.926 21.7498 22.254 21.8069C22.317 21.818 22.3795 21.8285 22.4415 21.8385C24.23 22.1284 26.0497 21.619 27.4341 20.4409C28.8293 19.2537 29.6294 17.5224 29.6294 15.6911V13.9761L24.6111 13.9871C24.6106 13.9871 24.6101 13.9871 24.6097 13.9871C24.2769 13.9871 24.0068 13.7178 24.0061 13.3848C24.0053 13.0513 24.275 12.7805 24.6084 12.7798L29.953 12.7681C29.9538 12.7681 29.9546 12.7681 29.9554 12.7681C30.1902 12.7681 30.4112 12.8594 30.5778 13.0255C30.7448 13.1922 30.8369 13.4139 30.8369 13.6499V15.6912C30.8369 17.8771 29.8819 19.9435 28.2166 21.3605C26.8669 22.5089 25.1704 23.1256 23.4302 23.1256Z" fill="#FFB125"/>
<path d="M16.0308 31.8747H23.969C20.6808 27.7048 21.0239 21.6953 21.0239 21.6953H19.9999H18.9759C18.9759 21.6954 19.319 27.7049 16.0308 31.8747Z" fill="#FED130"/>
<path d="M21.024 21.6948H20.0001H18.9761C18.9761 21.6948 19.0292 22.6279 18.8926 24.0137C18.6321 26.6551 19.2873 29.3198 20.8333 31.4774C20.9292 31.6113 21.0286 31.7437 21.1315 31.8741H23.9692C20.6809 27.7044 21.024 21.6948 21.024 21.6948Z" fill="#F7BC14"/>
<path d="M14.012 11.0386V16.3051C14.012 19.4208 15.4928 22.3512 18.0013 24.1993C19.1899 25.0749 20.8101 25.0749 21.9987 24.1993C24.5072 22.3512 25.9881 19.4208 25.9881 16.3051V11.0386H14.012Z" fill="#FED130"/>
<path d="M23.1367 11.0386V16.3051C23.1367 19.4208 21.6559 22.3512 19.1473 24.1993C18.9654 24.3333 18.7733 24.4466 18.5742 24.5396C19.6756 25.0542 20.9918 24.9409 21.9984 24.1993C24.507 22.3512 25.9878 19.4208 25.9878 16.3051V11.0386H23.1367Z" fill="#F7BC14"/>
<path d="M26.417 11.8613H13.5829C13.3895 11.8613 13.2327 11.7045 13.2327 11.5111V10.0597C13.2327 9.86627 13.3895 9.70947 13.5829 9.70947H26.417C26.6104 9.70947 26.7672 9.86627 26.7672 10.0597V11.5111C26.7671 11.7045 26.6103 11.8613 26.417 11.8613Z" fill="#FFB125"/>
<path d="M26.417 9.70947H23.916V11.8613H26.417C26.6104 11.8613 26.7671 11.7045 26.7671 11.511V10.0596C26.7671 9.86627 26.6103 9.70947 26.417 9.70947Z" fill="#FF901D"/>
<path d="M26.8098 34.4192H13.2442C13.0475 34.4192 12.911 34.2233 12.9792 34.0389L13.9866 31.3092C14.0275 31.1982 14.1333 31.1245 14.2516 31.1245H25.8024C25.9207 31.1245 26.0264 31.1982 26.0674 31.3092L27.0748 34.0389C27.1429 34.2233 27.0064 34.4192 26.8098 34.4192Z" fill="#FFB125"/>
<path d="M27.0748 34.0389L26.0674 31.3092C26.0263 31.1982 25.9206 31.1245 25.8023 31.1245H23.0471L24.2631 34.4192H26.8097C27.0063 34.4192 27.1428 34.2233 27.0748 34.0389Z" fill="#FF901D"/>
</g>
<defs>
<clipPath id="clip0">
<rect width="40" height="40" fill="white"/>
</clipPath>
</defs>
</svg>
